<svg xmlns="http://www.w3.org/2000/svg" width="16.742" height="21.974" viewBox="0 0 16.742 21.974">
  <path id="lock_FILL0_wght400_GRAD0_opsz48" d="M175.173,157.974a1.574,1.574,0,0,0,1.57-1.57V145.051a1.574,1.574,0,0,0-1.57-1.57h-1.831V140.97a4.97,4.97,0,1,0-9.941,0v2.511H161.57a1.574,1.574,0,0,0-1.57,1.57V156.4a1.574,1.574,0,0,0,1.57,1.57Zm0-1.57h-13.6V145.051h13.6Zm-6.806-3.662a1.958,1.958,0,0,1-1.421-.576,1.87,1.87,0,0,1-.589-1.386,2.051,2.051,0,0,1,.593-1.426,1.9,1.9,0,0,1,2.847,0,2.074,2.074,0,0,1,.589,1.439,1.848,1.848,0,0,1-.593,1.373A1.974,1.974,0,0,1,168.367,152.742Zm3.405-9.261h-6.8V140.97a3.4,3.4,0,1,1,6.8,0Zm3.4,12.923v0Z" transform="translate(-160 -136)" fill="#fff"/>
</svg>
